<?xml version="1.0" encoding="utf-8"?>
<!-- Generator: Adobe Illustrator 19.2.0, SVG Export Plug-In . SVG Version: 6.00 Build 0)  -->
<!DOCTYPE svg PUBLIC "-//W3C//DTD SVG 1.1//EN" "http://www.w3.org/Graphics/SVG/1.1/DTD/svg11.dtd">
<svg version="1.1" id="Layer_1" xmlns="http://www.w3.org/2000/svg" xmlns:xlink="http://www.w3.org/1999/xlink" x="0px" y="0px"
	 viewBox="0 0 150 194.7" enable-background="new 0 0 150 194.7" xml:space="preserve">
<g>
	<g>
		<g>
			<path fill="#FFFFFF" d="M124.6,63.3l-1.1,1.1c-0.6,0.6-1.4,0.6-2,0l-5.7-5.7c-0.3-0.3-0.7-0.4-1.1-0.4l-8.4,0
				c-0.9,0-1.6-0.7-1.5-1.5l0-1.5c0-0.8,0.7-1.5,1.5-1.5l10.2-0.1c0.4,0,0.8,0.2,1.1,0.5l7.1,7.1C125.3,61.9,125.2,62.7,124.6,63.3z
				"/>
			<path d="M104.5,58.6C104.5,58.6,104.5,58.6,104.5,58.6c-0.5-0.5-0.8-1.2-0.8-1.9l0-1.4c0-1.4,1.2-2.6,2.6-2.6l10.3-0.1
				c0.7,0,1.5,0.2,2,0.7l7.1,7.1c1,1,0.7,2.6-0.3,3.6l-1.1,1.1c-1,1-2.5,1.3-3.6,0.3l-5.7-5.7c-0.1-0.1-0.2-0.1-0.3-0.2l-8.4-0.1
				C105.6,59.4,105,59.1,104.5,58.6z M117,54.8c-0.1-0.1-0.2-0.1-0.4-0.1l-10.2,0.1c-0.2,0-0.4,0.2-0.4,0.4l0,1.5
				c0,0.1,0.1,0.2,0.1,0.3c0,0,0.2,0.1,0.3,0.1l8.4,0.1c0.7,0,1.4,0.3,1.8,0.8l5.7,5.7c0.2,0.2,0.2-0.1,0.4-0.3l1.1-1.1
				c0.1-0.1,0.5-0.3,0.3-0.5L117,54.8z"/>
		</g>
		<g>
			<path fill="#FFC83E" d="M128.7,85c0,3.2-2.6,5.9-5.9,5.9s-5.9-2.6-5.9-5.9s5.9-9.6,5.9-9.6S128.7,81.7,128.7,85z"/>
			<path d="M117.9,89.9c-1.3-1.3-2-3-2-4.9c0-3.6,5.5-9.7,6.2-10.4l0.8-0.9l0.8,0.9c0.6,0.7,6.2,6.8,6.2,10.4v0c0,1.9-0.7,3.6-2,4.9
				c-1.3,1.3-3.1,2-4.9,2C120.9,92,119.1,91.2,117.9,89.9z M122.8,77c-2.1,2.5-4.8,6.2-4.8,8c0,2.6,2.1,4.8,4.8,4.8
				c1.3,0,2.5-0.5,3.4-1.4s1.4-2.1,1.4-3.4v0C127.6,83.2,124.9,79.5,122.8,77z"/>
		</g>
		<g>
			<path fill="#9B9B9B" d="M102.6,64.1l0.2-15.9l4,2c0.4,0.2,0.6,0.6,0.6,1l-0.1,10c0,0.4-0.2,0.8-0.6,1L102.6,64.1z"/>
			<path d="M101.5,65.9l0.2-19.5l5.6,2.8c0.7,0.4,1.2,1.1,1.2,2l-0.1,10c0,0.8-0.5,1.6-1.2,1.9L101.5,65.9z M103.9,50l-0.1,12.3
				l2.4-1.2l0.1-9.9L103.9,50z"/>
		</g>
		<g>
			<path fill="#FF2727" d="M102.7,66.2l0.3-29.9c0-1-0.3-2-1-2.7L77.4,8.9c-2.6-2.6-7.2-2.6-9.8,0l-45,45c-2.6,2.6-2.3,6.8,0.4,9.5
				l37.3,37.3c2.6,2.6,6.7,2.9,9.3,0.2l32.1-32.1C102.3,68.1,102.7,67.1,102.7,66.2z M95.2,40.1c-1.3,1.3-3.7,1.2-5-0.1L70.2,19.9
				c-1.3-1.3-1.3-3.5,0-4.8l0.2-0.2c1.3-1.3,3.5-1.3,4.8,0L95.3,35c1.3,1.3,1.5,3.6,0.2,4.9L95.2,40.1z"/>
		</g>
		<g>
			<path fill="#9B0000" d="M103,65.8l0-8.5L68,92.4c-1.6,1.6-4,1.4-5.6-0.1L23.3,53.2l-0.4,0.4c-2.6,2.6-2.6,7.2,0.1,9.9l37.1,37.1
				c2.6,2.6,7.1,2.6,9.8,0l32.1-32.1C102.6,67.8,103,66.8,103,65.8z"/>
		</g>
		<g>
			<path d="M59.2,101.6L22,64.4c-3-3-3.1-8,0-11l45-45c3.1-3.1,8-3,11.1,0l24.6,24.6c0.9,0.9,1.4,2.2,1.4,3.4l-0.3,29.8
				c0,1.3-0.6,2.5-1.5,3.4l-32.1,32.1C67.1,104.5,62.3,104.7,59.2,101.6z M76.4,9.9c-2.2-2.2-5.7-2.2-7.9,0l-45,45
				c-2.2,2.2-2.1,5.7,0,7.9l37.3,37.3c2.2,2.2,5.6,2.1,7.8-0.1l32.1-32.1c0.5-0.5,0.8-1.1,0.8-1.8l0,0l0.3-29.8
				c0-0.6-0.2-1.3-0.7-1.8L76.4,9.9z M89.3,40.9L69.2,20.8c-1.7-1.7-1.5-4.6,0.3-6.4l0.2-0.2c1.7-1.7,4.3-1.7,6,0l20.1,20.1
				c1.6,1.6,2.3,4.7,0.5,6.5l-0.2,0.2C94.5,42.7,91.1,42.7,89.3,40.9z M74.2,15.8c-0.9-0.9-2-0.9-2.9,0L71.1,16
				c-0.8,0.8-1.2,2.4-0.3,3.3l20.1,20.1c0.9,0.9,2.9,0.9,3.7,0.1l0.2-0.2c0.8-0.8,0.4-2.5-0.5-3.3L74.2,15.8z"/>
		</g>
		<g>
			<g>
				<g>
					<path fill="#9B0000" d="M61.1,70.9c0.3,0.3,0.6,0.5,0.9,0.6c0.3,0.1,0.6,0.1,0.8,0c0.3-0.1,0.5-0.2,0.8-0.4
						c0.2-0.2,0.4-0.4,0.6-0.6l4.1-4.1c0.5-0.5,1.1-0.9,1.6-1c0.5-0.2,1.1-0.2,1.5-0.2c0.5,0.1,0.9,0.2,1.3,0.4
						c0.4,0.2,0.5,0.2,0.9,0.5l0.1-0.1c-0.3-0.3-0.3-0.5-0.5-0.8c-0.2-0.4-0.3-0.8-0.4-1.3c-0.1-0.5,0-1,0.2-1.6
						c0.2-0.6,0.6-1.2,1.2-1.8l3.9-3.9c0.2-0.2,0.4-0.4,0.6-0.7c0.2-0.2,0.3-0.5,0.4-0.8c0.1-0.3,0.1-0.6,0-0.9
						c-0.1-0.3-0.2-0.6-0.6-0.9l-1.4-1.4l2.8-2.8l3.3,3.3c0.3,0.3,0.6,0.7,0.8,1.2c0.2,0.5,0.4,1.1,0.4,1.7s-0.2,1.1-0.4,1.8
						c-0.2,0.7-0.7,1.2-1.3,1.7L78,63.6c-0.4,0.4-0.6,1-0.7,1.4c-0.1,0.5-0.1,1-0.1,1.4c0.1,0.4,0.2,0.8,0.4,1.1
						c0.2,0.3,0.3,0.5,0.6,0.8L76,70.6c-0.3-0.3-0.5-0.4-0.8-0.6c-0.4-0.2-0.7-0.3-1.1-0.4c-0.4-0.1-0.9-0.2-1.4-0.1
						c-0.4,0.1-1,0.3-1.4,0.6l-5,5c-0.6,0.6-1.1,1.1-1.8,1.3c-0.7,0.2-1.2,0.4-1.8,0.3c-0.6,0-1.1-0.2-1.6-0.4
						c-0.5-0.2-0.8-0.5-1.1-0.8l-3.3-3.3l2.8-2.8L61.1,70.9z"/>
				</g>
			</g>
			<g>
				<g>
					<path fill="#9B0000" d="M67.2,41.9c-0.3-0.3-0.6-0.5-0.9-0.6c-0.3-0.1-0.6-0.1-0.9,0c-0.3,0.1-0.7,0.1-0.9,0.3
						c-0.2,0.2-0.6,0.3-0.8,0.5l-3.9,3.9c-0.6,0.6-1.1,1.1-1.7,1.3c-0.6,0.2-1.1,0.3-1.5,0.3c-0.5-0.1-1-0.2-1.3-0.4
						c-0.4-0.2-0.6-0.3-0.9-0.6l-0.1,0.1c0.3,0.3,0.4,0.6,0.6,1c0.2,0.4,0.4,0.9,0.4,1.3c0.1,0.5-0.1,0.9-0.2,1.5
						c-0.2,0.5-0.6,1-1.1,1.6l-4.1,4.1c-0.2,0.2-0.3,0.5-0.5,0.8c-0.2,0.2-0.3,0.6-0.4,0.8c-0.1,0.3,0,0.6,0,0.9
						c0.1,0.3,0.3,0.6,0.6,0.9l1.2,1.2L48,63.5l-3.1-3.1c-0.3-0.3-0.6-0.6-0.8-1.1c-0.2-0.5-0.4-1-0.4-1.6c0-0.6,0-1.2,0.2-1.9
						c0.2-0.7,0.6-1.3,1.2-1.8l5-5c0.4-0.4,0.6-0.8,0.8-1.2c0.1-0.4,0.1-0.9,0-1.3c-0.1-0.4-0.3-0.9-0.5-1.2
						c-0.2-0.4-0.4-0.6-0.7-0.9l2.2-2.2c0.3,0.3,0.6,0.5,0.9,0.7c0.3,0.2,0.8,0.4,1.2,0.4c0.4,0.1,0.9,0,1.3-0.1
						c0.5-0.1,0.9-0.4,1.4-0.8l4.8-4.8c0.6-0.6,1.2-1,1.9-1.2c0.7-0.2,1.3-0.3,1.9-0.3c0.6,0,1.1,0.2,1.6,0.4
						c0.5,0.2,0.9,0.5,1.2,0.8l3.1,3.1l-2.8,2.8L67.2,41.9z"/>
				</g>
			</g>
		</g>
	</g>
	<g>
		<path fill="#FFFFFF" d="M8.8,142.9c0-1,0.5-1.5,1.5-1.5h10.8c0.8,0,1.3,0.2,1.8,0.8l2,2c0.5,0.5,0.8,1.1,0.8,1.8v35.9
			c0,0.8-0.2,1.3-0.8,1.8l-2,2c-0.5,0.5-1.1,0.8-1.8,0.8H10.3c-1,0-1.5-0.5-1.5-1.5V142.9z M20,180.5v-33l-1.2-1.2h-4.3v35.4h4.3
			L20,180.5z"/>
		<path fill="#FFFFFF" d="M42.6,185.1c0,1-0.5,1.5-1.5,1.5h-2.7c-1,0-1.5-0.5-1.5-1.5v-42.2c0-1,0.5-1.5,1.5-1.5h2.7
			c1,0,1.5,0.5,1.5,1.5V185.1z"/>
		<path fill="#FFFFFF" d="M68.2,185.1c0,1-0.5,1.5-1.5,1.5H55.4c-1,0-1.5-0.5-1.5-1.5v-42.2c0-1,0.5-1.5,1.5-1.5h11.1
			c1,0,1.5,0.5,1.5,1.5v1.9c0,1-0.5,1.5-1.5,1.5h-6.9v15h5.8c1,0,1.5,0.5,1.5,1.5v1.9c0,1-0.5,1.5-1.5,1.5h-5.8v15.6h7
			c1,0,1.5,0.5,1.5,1.5V185.1z"/>
		<path fill="#FFFFFF" d="M93.7,153c0,1-0.5,1.5-1.5,1.5h-2.7c-1,0-1.5-0.5-1.5-1.5v-5.6l-1.2-1.2h-2.1l-1.2,1.2v12.7l1.2,1.2h4.5
			c0.8,0,1.3,0.2,1.8,0.8l2,2c0.5,0.5,0.8,1.1,0.8,1.8v16c0,0.8-0.2,1.3-0.8,1.8l-2,2c-0.5,0.5-1.1,0.8-1.8,0.8h-6.9
			c-0.8,0-1.3-0.2-1.8-0.8l-2-2c-0.5-0.5-0.8-1.1-0.8-1.8V175c0-1,0.5-1.5,1.5-1.5h2.7c1,0,1.5,0.5,1.5,1.5v5.6l1.2,1.2H87l1.2-1.2
			v-13.3l-1.2-1.2h-4.5c-0.8,0-1.3-0.2-1.8-0.8l-2-2c-0.5-0.5-0.8-1.1-0.8-1.8V146c0-0.8,0.2-1.3,0.8-1.8l2-2
			c0.5-0.5,1.1-0.8,1.8-0.8h6.6c0.8,0,1.3,0.2,1.8,0.8l2,2c0.5,0.5,0.8,1.1,0.8,1.8V153z"/>
		<path fill="#FFFFFF" d="M118.9,185.1c0,1-0.5,1.5-1.5,1.5h-11.2c-1,0-1.5-0.5-1.5-1.5v-42.2c0-1,0.5-1.5,1.5-1.5h11.1
			c1,0,1.5,0.5,1.5,1.5v1.9c0,1-0.5,1.5-1.5,1.5h-6.9v15h5.8c1,0,1.5,0.5,1.5,1.5v1.9c0,1-0.5,1.5-1.5,1.5h-5.8v15.6h7
			c1,0,1.5,0.5,1.5,1.5V185.1z"/>
		<path fill="#FFFFFF" d="M141.1,181.7c1,0,1.5,0.5,1.5,1.5v1.9c0,1-0.5,1.5-1.5,1.5h-10.3c-1,0-1.5-0.5-1.5-1.5v-42.2
			c0-1,0.5-1.5,1.5-1.5h2.7c1,0,1.5,0.5,1.5,1.5v38.8H141.1z"/>
	</g>
</g>
</svg>
